<?xml version="1.0"?>
<svg version="1.1" xmlns="http://www.w3.org/2000/svg" width="450px" height="200px" style="border: dashed 2px #aaa"><path fill="#ffffff" d="M115.464375,130.09375q0.2109375-5.6953125,0.369140625-11.671875t0.298828125-11.794921875t0.2109375-11.302734375t0.0703125-10.23046875q0.0703125-0.94921875,1.65234375-1.51171875t3.779296875-0.826171875t4.640625-0.333984375t4.341796875-0.0703125q0.421875,0,1.7578125-0.03515625l0.66796875,0q1.01953125,0,2.14453125,0.0703125q1.4765625,0.10546875,2.583984375,0.45703125t1.107421875,1.01953125q0,0.4921875-0.38671875,0.791015625t-0.896484375,0.439453125t-1.0546875,0.17578125t-0.755859375,0.03515625q-3.3046875,0-6.5390625-0.10546875q-0.87890625-0.03515625-1.79296875-0.03515625q-2.390625,0-4.8515625,0.2109375q0.140625,0.421875,0.228515625,2.548828125t0.087890625,4.798828125t-0.03515625,5.220703125t0,3.919921875l0,9.140625q1.08984375-0.0703125,2.14453125-0.0703125l2.109375,0l1.40625-0.0703125q0.703125-0.03515625,1.4765625-0.03515625q0.80859375,0,1.65234375,0.03515625q1.6875,0.0703125,3.076171875,0.404296875t1.388671875,1.177734375q0,0.6328125-0.52734375,0.931640625t-1.177734375,0.439453125t-1.23046875,0.140625l-0.650390625,0q-2.00390625,0-4.166015625-0.140625t-4.025390625-0.140625q-0.3515625,0.140625-0.755859375,0.10546875t-0.720703125-0.03515625q0,5.2734375-0.10546875,10.494140625t-0.24609375,10.388671875q0,1.01953125-1.283203125,1.3359375t-2.443359375,0.31640625q-1.30078125,0-2.056640625-0.31640625t-1.072265625-1.037109375t-0.38671875-1.916015625q-0.03515625-0.66796875-0.0703125-1.4765625q0-0.66796875,0.03515625-1.44140625z M144.1402734375,122.04296875q0-3.234375,0.755859375-6.345703125t1.283203125-6.205078125q0.140625-0.80859375,1.107421875-1.001953125t1.634765625-0.193359375q1.16015625,0,1.86328125,0.3515625q0.28125,0.140625,0.52734375,0.31640625t0.24609375,0.45703125q0,3.0234375-0.720703125,5.90625t-0.720703125,6.1171875q0,1.08984375,0.158203125,2.056640625t0.298828125,1.916015625l0.2109375,1.01953125q0,0.28125,0.03515625,0.4921875t0.10546875,0.4921875q0,0.6328125-0.896484375,0.861328125t-1.564453125,0.228515625q-1.01953125,0-1.880859375-0.404296875t-1.353515625-1.388671875l-0.4921875-1.01953125q-0.421875-0.80859375-0.421875-1.810546875t-0.17578125-1.845703125z M146.3902734375,100.87890625l0-0.66796875q0-1.65234375,0.826171875-2.953125t2.478515625-1.30078125q0.2109375,0,0.404296875,0.03515625t0.404296875,0.03515625q0.421875,0.0703125,1.107421875,0.333984375t0.685546875,0.826171875l0,0.0703125q-0.140625,0.28125-0.17578125,0.580078125t-0.17578125,0.509765625l0.0703125-0.0703125q-0.421875,1.08984375-0.685546875,1.7578125t-0.580078125,1.072265625t-0.791015625,0.580078125t-1.353515625,0.17578125q-0.140625,0-0.4921875-0.03515625t-0.755859375-0.140625t-0.685546875-0.28125t-0.28125-0.52734375z M159.491953125,135.3671875q0-1.01953125,0.087890625-2.14453125t0.158203125-2.109375l0.2109375-5.2734375q0.3515625-6.328125,0.861328125-12.4453125t0.861328125-12.375q0.2109375-3.4453125,0.31640625-6.767578125t0.31640625-6.767578125q-0.140625-0.28125-0.140625-0.38671875q0-0.4921875,0.369140625-0.7734375t0.861328125-0.474609375t1.037109375-0.263671875t0.826171875-0.0703125l0.80859375,0q1.08984375,0.140625,1.58203125,0.685546875t0.6328125,1.30078125t0.0703125,1.6171875t-0.0703125,1.599609375q0,5.09765625-0.24609375,10.388671875t-0.5625,10.6171875t-0.580078125,10.65234375t-0.263671875,10.529296875l0,2.4609375q0,1.65234375-0.931640625,2.1796875t-2.583984375,0.52734375q-1.44140625,0-2.53125-0.6328125t-1.08984375-2.07421875z M175.7049609375,114.080078125q-0.087890625-1.177734375,0.140625-2.162109375t0.9140625-1.599609375t2.197265625-0.615234375q0.3515625,0,0.861328125,0.087890625t1.001953125,0.228515625t0.826171875,0.421875t0.333984375,0.7734375l0,3.97265625q1.37109375-1.58203125,2.98828125-2.267578125t3.69140625-0.685546875q1.58203125,0,3.12890625,0.720703125t2.91796875,1.916015625t2.373046875,2.63671875t1.458984375,2.8828125q0.28125-1.30078125,0.6328125-3.181640625t1.037109375-3.603515625t1.810546875-2.953125t2.98828125-1.23046875q2.00390625,0,3.375,1.44140625t2.232421875,3.744140625t1.30078125,5.150390625t0.650390625,5.625t0.2109375,5.185546875l0,3.779296875q0,0.421875-0.31640625,0.685546875t-0.791015625,0.404296875t-0.984375,0.17578125t-0.791015625,0.03515625q-1.08984375,0-1.986328125-0.333984375t-0.896484375-1.705078125l0-3.1640625t-0.0703125-4.095703125t-0.24609375-4.39453125t-0.45703125-3.990234375t-0.720703125-2.8828125t-1.072265625-1.125q-0.87890625,0-1.265625,0.984375t-0.650390625,2.49609375t-0.404296875,3.19921875t-0.38671875,3.19921875t-0.791015625,2.478515625t-1.494140625,0.966796875q-1.01953125,0-1.79296875-0.966796875t-1.529296875-2.408203125t-1.51171875-3.09375t-1.669921875-3.09375q-0.9140625-1.4765625-1.96875-2.390625q-0.94921875-0.87890625-2.14453125-0.84375l-0.17578125,0q-1.58203125,0.0703125-2.478515625,1.142578125t-1.37109375,2.619140625t-0.580078125,3.322265625t-0.10546875,3.111328125q0,1.265625,0.2109375,2.953125q0.140625,1.125,0.140625,2.14453125q0,0.52734375-0.03515625,1.01953125q-0.10546875,1.4765625-0.791015625,2.478515625t-2.548828125,1.001953125q-0.703125,0-1.7578125-0.140625t-1.40625-0.94921875q-0.80859375-1.44140625-1.23046875-3.638671875t-0.6328125-4.53515625t-0.24609375-4.640625t-0.03515625-3.955078125q0-1.16015625-0.087890625-2.337890625z M220.04296875,82.80859375q0-0.703125,1.08984375-1.001953125t1.79296875-0.298828125q0.80859375,0,1.775390625,0.2109375t1.177734375,1.08984375q1.01953125,4.11328125,1.564453125,8.384765625t0.826171875,8.595703125t0.45703125,8.595703125t0.38671875,8.455078125q0.94921875-4.18359375,1.951171875-8.314453125t2.619140625-8.244140625l0-2.8125q0-1.79296875,1.248046875-2.583984375t3.357421875-0.791015625q0.2109375,0,0.966796875,0.10546875t0.755859375,0.703125q-0.140625,0.421875-0.333984375,0.80859375t-0.193359375,0.84375q0,5.34375,1.265625,10.951171875t2.49609375,10.916015625q0.703125-4.53515625,1.6171875-9.03515625t1.8984375-8.96484375q1.30078125-5.9765625,1.986328125-9.931640625t1.30078125-6.2578125t1.3359375-3.26953125t2.021484375-0.966796875q0.80859375-0.0703125,1.51171875,0.28125t0.5625,1.16015625q-2.53125,12.234375-4.728515625,24.5390625t-4.482421875,24.609375q0,0.703125,0.24609375,1.65234375t0.24609375,1.6875q0,0.421875-0.38671875,0.703125t-0.931640625,0.474609375t-1.1953125,0.263671875t-1.142578125,0.0703125q-1.08984375,0-2.28515625-0.333984375t-1.546875-1.916015625q-1.23046875-5.484375-2.267578125-11.021484375t-1.916015625-11.162109375q-0.28125,1.30078125-0.52734375,2.63671875t-0.45703125,2.70703125q-1.01953125,5.9765625-2.25,11.953125t-1.23046875,12.09375q0,1.51171875-0.6328125,1.951171875t-2.14453125,0.439453125q-1.16015625,0-1.96875-0.38671875q-0.6328125-0.3515625-1.1953125-0.6328125q-0.4921875-0.28125-0.896484375-0.650390625t-0.404296875-0.720703125q-0.5625-7.62890625-0.791015625-15.15234375t-0.509765625-15.15234375q-0.28125-6.85546875-0.826171875-13.693359375t-1.212890625-13.587890625z M262.7462109375,126.71875l0-3.3046875q0-1.79296875,0.087890625-5.080078125t0.228515625-7.20703125t0.38671875-8.173828125t0.5625-8.033203125t0.755859375-6.767578125t1.001953125-4.4296875q0.3515625-0.80859375,1.16015625-1.01953125t1.58203125-0.2109375q1.23046875,0,2.162109375,0.544921875t0.931640625,1.986328125l-0.6328125,0.703125q-1.23046875,8.12109375-1.58203125,16.3125t-0.4921875,16.3828125q0.87890625-1.37109375,1.986328125-2.689453125t2.4609375-2.337890625t2.91796875-1.634765625t3.427734375-0.615234375q2.390625,0,3.955078125,1.44140625t2.583984375,3.744140625t1.51171875,5.150390625t0.755859375,5.6953125t0.369140625,5.396484375t0.31640625,4.236328125q-0.66796875,0.9140625-1.96875,0.9140625l-0.10546875,0q-0.5625,0-1.23046875-0.140625t-0.87890625-0.703125l0.0703125,0.0703125q-0.4921875-1.08984375-0.66796875-3.146484375t-0.28125-4.53515625t-0.369140625-5.080078125t-0.791015625-4.7109375t-1.546875-3.48046875t-2.7421875-1.44140625l-0.2109375,0q-2.07421875,0-3.48046875,1.265625q-1.4765625,1.3359375-2.390625,3.515625t-1.40625,4.8515625t-0.755859375,5.150390625t-0.404296875,4.5t-0.3515625,2.970703125q-0.2109375,0.80859375-1.248046875,1.072265625t-1.775390625,0.263671875q-1.72265625,0-2.8125-0.984375q-0.80859375-1.93359375-0.94921875-4.81640625t-0.140625-5.625z M296.379140625,122.04296875q0-3.234375,0.755859375-6.345703125t1.283203125-6.205078125q0.140625-0.80859375,1.107421875-1.001953125t1.634765625-0.193359375q1.16015625,0,1.86328125,0.3515625q0.28125,0.140625,0.52734375,0.31640625t0.24609375,0.45703125q0,3.0234375-0.720703125,5.90625t-0.720703125,6.1171875q0,1.08984375,0.158203125,2.056640625t0.298828125,1.916015625l0.2109375,1.01953125q0,0.28125,0.03515625,0.4921875t0.10546875,0.4921875q0,0.6328125-0.896484375,0.861328125t-1.564453125,0.228515625q-1.01953125,0-1.880859375-0.404296875t-1.353515625-1.388671875l-0.4921875-1.01953125q-0.421875-0.80859375-0.421875-1.810546875t-0.17578125-1.845703125z M298.629140625,100.87890625l0-0.66796875q0-1.65234375,0.826171875-2.953125t2.478515625-1.30078125q0.2109375,0,0.404296875,0.03515625t0.404296875,0.03515625q0.421875,0.0703125,1.107421875,0.333984375t0.685546875,0.826171875l0,0.0703125q-0.140625,0.28125-0.17578125,0.580078125t-0.17578125,0.509765625l0.0703125-0.0703125q-0.421875,1.08984375-0.685546875,1.7578125t-0.580078125,1.072265625t-0.791015625,0.580078125t-1.353515625,0.17578125q-0.140625,0-0.4921875-0.03515625t-0.755859375-0.140625t-0.685546875-0.28125t-0.28125-0.52734375z M311.7308203125,112.09375q0-0.703125,0.9140625-0.896484375t1.40625-0.193359375q3.09375,0,6.08203125-0.52734375t6.01171875-0.52734375q0.28125,0,0.931640625,0.03515625t1.23046875,0.140625t1.037109375,0.3515625t0.45703125,0.73828125q0,0.87890625-0.421875,2.53125t-1.142578125,3.708984375t-1.58203125,4.359375t-1.72265625,4.39453125t-1.6171875,3.779296875t-1.212890625,2.63671875q1.16015625,0.2109375,2.84765625,0.3515625t3.19921875,0.28125t2.53125,0.474609375t0.94921875,0.826171875q-0.140625,0.80859375-1.44140625,1.265625q-1.265625,0.45703125-3.1640625,0.6328125q-1.16015625,0.10546875-2.4609375,0.10546875q-0.7734375,0-1.546875-0.03515625q-2.109375-0.10546875-3.955078125-0.3515625t-3.076171875-0.685546875t-1.23046875-0.931640625q0-0.2109375,0.615234375-1.72265625t1.51171875-3.673828125t1.986328125-4.7109375t2.091796875-4.904296875t1.7578125-4.18359375t1.037109375-2.53125q-2.07421875,0.140625-4.201171875,0.3515625t-4.201171875,0.2109375q-0.28125,0-0.896484375-0.03515625t-1.1953125-0.17578125t-1.0546875-0.404296875t-0.474609375-0.685546875z"/></svg>
